<svg xmlns="http://www.w3.org/2000/svg" width="760" height="920" viewBox="0 0 760 920" role="img" aria-labelledby="t d"><title id="t">Trissomia 21, desenvolvimento e participação</title><desc id="d">Composição abstrata com três trajetórias cromossômicas e pontos conectados a saúde, aprendizagem, comunicação e autonomia.</desc><defs><linearGradient id="g" x1="0" y1="0" x2="1" y2="1"><stop stop-color="#8794c9"/><stop offset="1" stop-color="#6fa4a4"/></linearGradient><radialGradient id="r"><stop stop-color="#8794c9" stop-opacity=".24"/><stop offset="1" stop-color="#0b0c10" stop-opacity="0"/></radialGradient></defs><rect width="760" height="920" rx="54" fill="#111319"/><circle cx="380" cy="440" r="330" fill="url(#r)"/><g fill="none" stroke="url(#g)" stroke-width="18" stroke-linecap="round" opacity=".88"><path d="M215 150 C320 245 150 345 255 448 C360 550 180 665 292 770"/><path d="M374 132 C478 242 315 344 420 450 C525 558 350 657 465 788"/><path d="M527 165 C617 255 472 350 562 455 C642 548 500 652 585 744"/></g><g fill="#0b0c10" stroke="#87a78c" stroke-width="4"><circle cx="255" cy="448" r="22"/><circle cx="420" cy="450" r="22"/><circle cx="562" cy="455" r="22"/></g><g fill="#f1e7d5" font-family="Inter,Arial,sans-serif" text-anchor="middle"><text x="380" y="82" font-size="19" letter-spacing="4">CROMOSSOMO 21</text><text x="255" y="454" font-size="15">21</text><text x="420" y="456" font-size="15">21</text><text x="562" y="461" font-size="15">21</text></g><g fill="#16171d" stroke="#3c4652" stroke-width="2"><rect x="90" y="805" width="132" height="54" rx="27"/><rect x="238" y="805" width="132" height="54" rx="27"/><rect x="386" y="805" width="132" height="54" rx="27"/><rect x="534" y="805" width="132" height="54" rx="27"/></g><g fill="#d9d4ca" font-family="Inter,Arial,sans-serif" font-size="13" text-anchor="middle"><text x="156" y="838">SAÚDE</text><text x="304" y="838">APRENDER</text><text x="452" y="838">COMUNICAR</text><text x="600" y="838">PARTICIPAR</text></g><path d="M292 770 C270 788 228 800 156 805 M465 788 C430 797 370 804 304 805 M585 744 C570 770 520 791 452 805 M585 744 C600 767 607 786 600 805" fill="none" stroke="#6fa4a4" stroke-width="3" stroke-dasharray="6 9" opacity=".8"/></svg>